PathFileType	4	(X/Y/Z)	 s06c0202.trc
DataRate	CameraRate	NumFrames	NumMarkers	Units	OrigDataRate	OrigDataStartFrame	OrigNumFrames
200	200	4	48	mm	200	751	2000
Frame#	Time	racr			lacr			c7			jug			rlel			rdr			llel			ldr			s2			lic			ric			lasi			rasi			rpsi			lpsi			rgt			lgt			rth1			rth2			rth3			rth4			rlfc			rmfc			rsh1			rsh2			rsh3			rsh4			rlmal			rcal			rtoe			rmt5			lth1			lth2			lth4			lth3			llfc			lmfc			llmal			lcal			lmt5			lsh1			lsh2			lsh3			lsh4			ltoe			SBIKE			LBIKE			RBIKE			
		X1	Y1	Z1	X2	Y2	Z2	X3	Y3	Z3	X4	Y4	Z4	X5	Y5	Z5	X6	Y6	Z6	X7	Y7	Z7	X8	Y8	Z8	X9	Y9	Z9	X10	Y10	Z10	X11	Y11	Z11	X12	Y12	Z12	X13	Y13	Z13	X14	Y14	Z14	X15	Y15	Z15	X16	Y16	Z16	X17	Y17	Z17	X18	Y18	Z18	X19	Y19	Z19	X20	Y20	Z20	X21	Y21	Z21	X22	Y22	Z22	X23	Y23	Z23	X24	Y24	Z24	X25	Y25	Z25	X26	Y26	Z26	X27	Y27	Z27	X28	Y28	Z28	X29	Y29	Z29	X30	Y30	Z30	X31	Y31	Z31	X32	Y32	Z32	X33	Y33	Z33	X34	Y34	Z34	X35	Y35	Z35	X36	Y36	Z36	X37	Y37	Z37	X38	Y38	Z38	X39	Y39	Z39	X40	Y40	Z40	X41	Y41	Z41	X42	Y42	Z42	X43	Y43	Z43	X44	Y44	Z44	X45	Y45	Z45	X46	Y46	Z46	X47	Y47	Z47	X48	Y48	Z48	
751	3.7550	557.099891	1216.881854	-80.755115	564.732626	1202.623043	-396.793403	549.638439	1319.881303	-237.291430	542.587829	1153.681343	-234.027425	484.045437	988.611742	59.088695	657.211049	907.543383	-64.698569	458.909824	967.675012	-502.221542	644.413307	918.007790	-389.348978	2.862690	1143.210836	-200.088878	145.637822	1102.363820	-384.274372	157.268495	1103.310039	-44.913664	170.549179	1053.527614	-344.184515	178.836424	1063.601013	-86.085459	38.028148	1179.068261	-168.027411	34.560417	1179.420341	-228.547489	129.005349	1025.266502	-4.842172	123.994860	1044.811042	-400.841324	228.851178	943.395964	-10.653118	305.017136	897.354748	-26.195084	347.089154	821.856337	-34.679256	325.110782	922.738070	-45.449337	376.615100	727.359687	-62.038775	356.760431	711.723943	-172.402335	291.282542	641.863392	-34.757068	233.669827	579.246178	-55.654935	152.436437	544.838860	-53.558791	245.069859	566.988151	-92.854553	77.457050	509.397889	-54.522113	18.151783	540.531709	-101.703693	151.027577	297.158686	-95.032128	81.840224	370.676428	-28.168829	181.934267	933.328887	-414.448558	254.657310	885.829495	-407.930518	281.396024	909.670609	-396.663501	294.322267	805.799675	-401.911412	344.919994	697.630446	-381.180589	350.151364	681.004376	-268.816157	254.796338	333.922140	-373.982952	184.425844	294.857389	-325.247745	378.437485	281.569190	-404.721128	323.306296	589.772320	-402.813507	323.579195	504.714639	-383.156180	282.251748	426.286362	-380.369457	349.001482	502.941271	-352.718936	464.680159	298.314689	-348.261184	-202.618162	868.044110	-206.881917	-49.316904	83.710713	-414.479886	-49.151316	79.954649	-16.931686	
752	3.7600	557.303067	1217.389141	-80.662621	565.616254	1203.219124	-395.798696	550.373483	1320.677428	-236.879841	542.557702	1154.425591	-233.264784	484.708167	989.181706	58.530726	657.804647	907.911505	-64.998045	459.970878	968.760173	-502.102189	645.123767	918.208647	-389.381526	2.984894	1145.130020	-200.779454	146.206315	1103.588919	-385.263402	156.622474	1105.607226	-45.684204	171.965154	1055.264304	-344.903056	178.458890	1065.453258	-86.368847	38.433107	1180.186882	-169.955337	35.347176	1180.262927	-230.598093	129.264440	1028.938807	-5.263205	124.619551	1043.359968	-401.548953	229.844118	948.730793	-11.440390	307.153793	904.300865	-26.624543	350.694156	829.708078	-34.492207	326.755600	929.987874	-45.918748	382.037604	735.062513	-61.903348	362.384470	719.213050	-172.544382	296.310985	649.636623	-34.887286	238.084024	587.549847	-55.767331	156.645420	553.912803	-53.539531	249.330416	575.192916	-92.966392	81.110166	519.123796	-54.638134	23.232657	550.616450	-101.093320	154.541674	306.899454	-95.134744	85.437316	380.409643	-28.262259	180.997469	930.261290	-415.776610	252.410156	880.997578	-409.035212	279.738459	904.224388	-397.946271	289.935507	799.867593	-402.486200	338.239722	690.812828	-382.672073	342.598591	674.041062	-269.108320	252.393058	326.278362	-374.326505	181.990242	288.386237	-325.570758	375.923414	271.908267	-404.686981	317.736168	582.711143	-404.002074	319.116799	497.770553	-384.166476	278.711508	418.731445	-381.000550	344.609307	496.235781	-353.670027	462.349814	287.326775	-348.084817	-202.608660	868.105965	-207.053341	-49.322409	83.736861	-414.485640	-49.138139	79.953196	-16.976484	
753	3.7650	557.370681	1218.116584	-80.733604	566.484118	1203.852618	-394.619524	551.161769	1321.629749	-236.175256	542.268757	1155.364419	-232.391951	485.381511	989.821371	57.947128	658.388184	908.468642	-65.093528	460.932251	970.003140	-501.816579	645.744097	918.569794	-389.416707	3.575525	1146.251234	-202.963813	146.827357	1105.024895	-386.066924	155.951929	1108.129871	-46.541812	173.227185	1057.077861	-345.479963	178.075032	1067.450511	-86.635546	38.874573	1181.348324	-172.257937	36.174971	1181.170609	-232.739084	129.510658	1032.951344	-5.629976	125.163321	1041.928547	-402.245456	230.734529	954.494873	-12.312229	309.185294	911.423394	-27.092882	354.263056	837.727029	-34.304752	328.354773	937.399049	-46.441915	387.471483	743.494672	-61.805414	362.720263	726.730485	-171.428576	301.508600	657.597726	-34.981388	242.806928	595.957149	-55.852216	161.129083	562.930472	-53.546108	253.892396	583.509201	-93.105676	85.162912	528.739798	-54.551898	25.837770	559.831964	-101.649170	158.687426	316.630697	-95.305357	90.009122	390.000912	-28.028062	179.856293	927.400493	-417.074673	249.923698	876.383702	-410.215537	277.816446	898.891368	-399.297367	285.366290	794.359740	-403.421702	331.345840	684.151953	-384.103653	335.613063	667.100343	-270.630148	249.616834	318.744093	-374.716960	179.116980	282.150086	-325.988266	372.807883	262.208926	-404.588482	311.732048	575.711535	-405.255135	314.152755	490.866650	-385.117149	274.705735	411.430973	-381.693413	339.760672	489.803577	-354.864407	459.424548	276.309492	-347.850252	-202.585964	868.193882	-207.188455	-49.295203	83.746871	-414.502168	-49.134473	79.990254	-16.980427	
754	3.7700	557.397496	1218.910157	-80.666259	567.328329	1204.448291	-393.460460	552.035539	1322.637336	-235.413075	541.826937	1156.045159	-231.544390	486.068071	990.461661	57.369654	658.854711	909.118043	-65.058223	461.780539	971.445037	-501.573228	646.494362	918.797720	-389.384563	4.104161	1147.503611	-204.919024	147.515832	1106.414906	-386.739698	155.284632	1110.616499	-47.402571	174.322856	1058.711202	-345.938134	177.558853	1069.384717	-86.936299	39.240008	1182.610123	-174.297990	36.935127	1182.095020	-234.897559	129.725042	1037.010138	-5.993500	125.752718	1040.559818	-402.943769	232.174233	960.396289	-12.986608	311.291037	919.089687	-27.665862	357.406144	846.195627	-33.691223	329.768332	945.076680	-47.055113	393.149619	751.851413	-61.823729	368.263555	732.320740	-172.686537	306.267238	665.887540	-35.144974	247.751995	604.452904	-55.947034	165.909456	571.834350	-53.500033	258.729291	591.952880	-93.231454	89.537572	538.193808	-54.514147	29.845018	568.998572	-101.536425	163.407917	326.240217	-95.552084	94.718222	399.376988	-28.103756	178.445578	924.806212	-418.294282	247.147639	872.000889	-411.459337	275.666342	893.812889	-400.637784	280.986002	788.703109	-404.260043	324.195078	677.777243	-386.014106	328.734736	660.154715	-273.144749	246.314685	311.530836	-375.200922	175.718792	276.235322	-326.568533	369.193737	252.903302	-404.628483	305.417325	569.011882	-406.635030	308.846984	484.260200	-386.355142	270.144030	404.402758	-382.545304	334.534804	483.045511	-355.534404	455.880559	265.648961	-347.763082	-202.574006	868.264467	-207.313246	-49.298442	83.769260	-414.519255	-49.116950	80.028158	-16.989884	
